<?xml version="1.0" encoding="UTF-8"?>
<svg xmlns="http://www.w3.org/2000/svg"
     version="1.2"
     baseProfile="tiny"
     width="200"
     height="200"
     viewBox="0 0 1366 768">
<path d="M408.03,347.39c0-43.25,31.62-71.22,70.7-71.22,28.14,0,47.25,14.94,59.06,39.26l-22.76,6.43c-4.69-23.97-15.63-42.39-36.31-42.39-27.97,0-44.99,29.7-44.99,66.36s16.16,69.14,51.94,69.14c28.66,0,47.94-20.32,55.76-54.89h2.78c-8.51,37.87-28.84,62.01-64.97,62.01-44.3,0-71.22-31.44-71.22-74.7Z" fill="#0d3770"/><path d="M598.46,419.65h0s-7.13,0-7.13,0h0s-9,0-9,0c0,0,6.98-5.03,5.73-8.19l-5.31-13.34h-32.2l-5.35,13.44c-1.07,3.16,5.74,8.09,5.74,8.09h-8.96s-7.13,0-7.13,0h0s-4.98,0-4.98,0c0,0,5.32-2.25,8.53-8.94l18-45.25,2.5-6.32h15.49l2.5,6.32,17.97,45.19c3.2,6.75,8.57,9.01,8.57,9.01h-4.98ZM580.24,391.79l-10.47-26.33h-6.21l-10.48,26.33h27.16Z" fill="#0d3770"/><path d="M670.31,359.14s-4.29,2.25-4.29,7.75v52.76h-13.83l-31.3-54.19h-4.62v46.44c0,5.08,4.29,7.75,4.29,7.75h-15.2s4.29-2.5,4.29-7.75v-52.77h14.97l31.3,54.19h3.49v-46.44c0-5.49-4.29-7.75-4.29-7.75h15.2Z" fill="#0d3770"/><path d="M739.29,419.65h0s-7.13,0-7.13,0h0s-9,0-9,0c0,0,6.98-5.03,5.73-8.19l-5.31-13.34h-32.2l-5.35,13.44c-1.07,3.16,5.74,8.09,5.74,8.09h-8.96s-7.13,0-7.13,0h0s-4.98,0-4.98,0c0,0,5.32-2.25,8.53-8.94l18-45.25,2.5-6.32h15.49l2.5,6.32,17.97,45.19c3.2,6.75,8.57,9.01,8.57,9.01h-4.98ZM721.07,391.79l-10.47-26.33h-6.21l-10.48,26.33h27.16Z" fill="#0d3770"/><path d="M810.21,416.33v3.31c-7.17,0-15.48-3.31-19.89-9.01l-12.27-15.85h-21.03v17.11c0,5.23,4.29,7.75,4.29,7.75h-15.21s4.29-2.52,4.29-7.75v-44.28c0-5.74-4.29-8.49-4.29-8.49h39.41c9.67,0,17.51,7.85,17.51,17.52,0,10.81-7.59,17.87-17.04,18.1l10.31,13.28c3.31,4.33,8.46,8.31,13.92,8.31ZM757.02,371.57v16.89h26.01c5.98,0,11.97-3.54,12.98-8.71,1.6-8.17-4.18-14.29-12.06-14.29h0s-20.78.01-20.78.01c-3.35,0-6.12,2.74-6.15,6.09h0Z" fill="#0d3770"/><path d="M824.36,411.9c0,5.2,4.29,7.75,4.29,7.75h-15.21s4.29-2.55,4.29-7.75v-45.02c0-5.19-4.29-7.76-4.29-7.76h15.21s-4.29,1.91-4.29,7.76v45.02Z" fill="#0d3770"/><path d="M865.78,358.26c17.21,0,31.93,13.95,31.93,31.15s-14.73,31.15-31.93,31.15-31.93-13.95-31.93-31.15,14.73-31.15,31.93-31.15ZM840.48,389.41c0,12.99,10.92,24.84,25.31,24.84s25.31-11.85,25.31-24.84-10.92-24.85-25.31-24.85-25.3,11.66-25.31,24.85Z" fill="#0d3770"/><path d="M959.41,403.7c0,8.97-9,16.88-27.41,16.88s-28.22-7.92-28.22-25.05l7.45.81c0,15.14,9.37,17.91,20.77,17.91,13.65,0,20.75-3.24,20.75-10.55,0-11.66-47.65-7.45-47.65-27.37,0-9.01,6.16-17.94,26.55-17.94s27.13,12.24,27.13,20.94l-7.5-.86c0-9.74-7.27-13.91-19.63-13.91s-19.89,3.66-19.89,11.76c0,13.16,47.65,9.25,47.65,27.37Z" fill="#0d3770"/><path d="M504.34,468.77h0s-3.45,0-3.45,0h0s-4.35,0-4.35,0c0,0,3.38-2.43,2.77-3.96l-2.57-6.45h-15.58l-2.59,6.5c-.52,1.53,2.78,3.91,2.78,3.91h-4.34s-3.45,0-3.45,0h0s-2.41,0-2.41,0c0,0,2.58-1.09,4.13-4.33l8.71-21.9,1.21-3.06h7.5l1.21,3.06,8.7,21.87c1.55,3.27,4.15,4.36,4.15,4.36h-2.41ZM495.53,455.29l-5.07-12.74h-3.01l-5.07,12.74h13.14Z" fill="#0d3770"/><path d="M546.06,447.96c0,5.32-3.79,8.78-8.47,8.78h-13.79v8.28c0,2.53,2.08,3.75,2.08,3.75h-7.36s2.08-1.22,2.08-3.75v-21.43c0-2.78-2.08-4.11-2.08-4.11h19.07c4.68,0,8.47,3.8,8.47,8.48ZM542.66,449.46c.78-3.95-2.02-6.91-5.83-6.91h0s-10.06,0-10.06,0c-1.62,0-2.96,1.33-2.98,2.95v8.18h12.59c2.89,0,5.79-1.71,6.28-4.22Z" fill="#0d3770"/><path d="M586.29,468.77h0s-3.45,0-3.45,0h0s-4.35,0-4.35,0c0,0,3.38-2.43,2.77-3.96l-2.57-6.45h-15.58l-2.59,6.5c-.52,1.53,2.78,3.91,2.78,3.91h-4.34s-3.45,0-3.45,0h0s-2.41,0-2.41,0c0,0,2.58-1.09,4.13-4.33l8.71-21.9,1.21-3.06h7.5l1.21,3.06,8.7,21.87c1.55,3.27,4.15,4.36,4.15,4.36h-2.41ZM577.48,455.29l-5.07-12.74h-3.01l-5.07,12.74h13.14Z" fill="#0d3770"/><path d="M631.49,467.17v1.6c-3.47,0-7.49-1.6-9.62-4.36l-5.94-7.67h-10.18v8.28c0,2.53,2.08,3.75,2.08,3.75h-7.36s2.08-1.22,2.08-3.75v-21.43c0-2.78-2.08-4.11-2.08-4.11h19.07c4.68,0,8.47,3.8,8.47,8.48,0,5.23-3.67,8.65-8.25,8.76l4.99,6.43c1.6,2.09,4.09,4.02,6.74,4.02ZM605.75,445.51v8.17h12.59c2.89,0,5.79-1.71,6.28-4.22.77-3.95-2.02-6.91-5.84-6.91h0s-10.06,0-10.06,0c-1.62,0-2.96,1.33-2.98,2.95h0Z" fill="#0d3770"/><path d="M673.01,447.35s-3.15-4.8-4.66-4.8h-7.03c-1.27.67-2.07,1.24-2.07,2.68v19.79c0,2.53,2.08,3.75,2.08,3.75h-7.36s2.08-1.09,2.08-3.75v-19.8c0-1.44-.8-2-2.08-2.67h-7.02c-1.51,0-4.67,4.8-4.67,4.8l1.34-7.73v-.14h28.05v.14l1.33,7.72Z" fill="#0d3770"/><path d="M723.7,465.04v-22.48h-2.1l-10.47,26.22h-7.6s-10.48-26.22-10.48-26.22h-2.09v22.47c0,2.48,2.08,3.75,2.08,3.75h-7.36s2.08-1.43,2.08-3.74v-25.53h7.47s10.49,26.21,10.49,26.21h3.24l10.48-26.21h7.47s0,25.52,0,25.52c0,2.75,2.08,3.75,2.08,3.75h-7.36s2.08-1.13,2.08-3.74Z" fill="#0d3770"/><path d="M768.32,460.13l-1.76,8.64h-24.12s2.08-1.23,2.08-3.81v-21.72c0-2.29-2.08-3.75-2.08-3.75h23.09l1.77,7.86s-3.2-4.8-4.72-4.8h-11.9c-1.64,0-2.96,1.33-2.96,2.96v6.85h9.76c1.56,0,3.11-2.01,3.11-2.01v7.15s-1.44-2.08-3.11-2.08h-9.76v7.35c0,1.62,1.31,2.93,2.93,2.93h12.96c1.48,0,4.69-5.58,4.69-5.58Z" fill="#0d3770"/><path d="M813.11,439.49s-2.08,1.09-2.08,3.75v25.53h-6.69l-15.14-26.22h-2.24v22.47c0,2.46,2.08,3.75,2.08,3.75h-7.35s2.08-1.21,2.08-3.75v-25.53h7.24l15.15,26.22h1.69v-22.47c0-2.66-2.08-3.75-2.08-3.75h7.36Z" fill="#0d3770"/><path d="M856.37,447.35s-3.15-4.8-4.66-4.8h-7.03c-1.27.67-2.07,1.24-2.07,2.68v19.79c0,2.53,2.08,3.75,2.08,3.75h-7.36s2.08-1.09,2.08-3.75v-19.8c0-1.44-.8-2-2.08-2.67h-7.02c-1.51,0-4.67,4.8-4.67,4.8l1.34-7.73v-.14h28.05v.14l1.33,7.72Z" fill="#0d3770"/><path d="M896.28,461.05c0,4.34-4.36,8.17-13.26,8.17s-13.66-3.83-13.66-12.12l3.61.39c0,7.33,4.53,8.67,10.05,8.67,6.6,0,10.04-1.57,10.04-5.11,0-5.64-23.06-3.6-23.06-13.24,0-4.36,2.98-8.68,12.84-8.68s13.13,5.92,13.13,10.13l-3.63-.42c0-4.71-3.52-6.73-9.5-6.73s-9.62,1.77-9.62,5.69c0,6.37,23.06,4.48,23.06,13.24Z" fill="#0d3770"/><path d="M648.76,502.69c-1.57-.87-3.55-1.05-5.6-.74,1.72.13,3.41.55,4.98,1.29.19-.17.39-.36.62-.55Z" fill="#edb055"/><path d="M870.59,222.05c-.23-4.66-23.04-1.15-27.7-2.52-3.54-.63-7.28-.77-9.67-3.58-1.95-1.01-4.15-1.79-6.35-1.93-2.51-1.68-5.44-2.62-8.42-3.16-4.76-1.02-9.9-.46-14.44-2.28-4.48-1.85-8.88-3.7-13.57-4.94-8.05-1.86-16.51-1.21-24.73-1.31.28-.29.68-.44,1.07-.43-1.29-.42-2.68-.47-3.99-.05.32-.3.81-.57,1.25-.6-1.45-.67-3.03-.41-4.59-.05.22-.4.67-.68,1.14-.69-4.76-.75-9.55.14-13.77,2.44.03-.31.24-.5.47-.72-3.07,1.3-5.74,3.09-8,5.54-.13-.3,0-.68.16-.96-3.45,2.34-7.38,5.56-8.22,9.85-.14-.28-.1-.47-.09-.78-.67,3.01-.35,6.21.89,9.04-.39-.08-.67-.25-.85-.61,1.32,3.9,4.99,7.09,5.65,11.09-.04,2.28-1.89,4.14-2.32,6.39-.39,1.64-1.27,3.96-.07,5.34.24-3.75,4.27-6.16,6.47-8.95,6.35-1.7,13.79,2.8,16.25,8.8.06-.31.19-.61.09-.91,1.3,2.11,3.54,3.7,5.27,5.49-.19-.03-.18-.01-.36-.05,1.6,1.76,3.95,2.63,6.01,3.74-.33.08-.45.19-.79.11,2.41,2.89,6.37,3.69,9.92,4.3,3.95.71,7.66,3.03,11.66,2.71-.28-.13-.42-.23-.71-.36,1.85-.01,3.75-.37,5.49-1.02-.73,1.34-2.78.66-3.66,1.84-.69,1.28-2.34,0-3.48.19-1.67.12-3.32.47-4.97.75,3.74.33,7.5.52,11.26.75,2.41.03,4.82.07,7.22.12-.32-.05-.63-.1-.96-.14-.82-1.3-.03-2.99.14-4.41,1.69.43,3.46-.15,5.05-.88-.22-.02-.26-.09-.49-.11,2.19-.02,4.27-.99,6.26-1.88-.27,0-.38-.01-.65-.01,3.18-.23,6.07-2.18,8.78-3.8,1.43,6.29,1.15,9.77-.33,11.58,1.28.02,2.55.05,3.83.07,0-.77.14-1.58-.12-2.34-1.26-5.45-.28-10.98-.23-16.47,1.07-.96,2.06-2.11,2.75-3.38.17.23.07.51-.05.77.82-.8,1.54-1.77,1.79-2.89.04.16.13.32.12.5,2.38-1.78,3.57-4.63,6.01-6.27,4.55-2.28,9.25-4.39,14.04-6.11,8.64-1.27,17.54-2.02,26.29-2,4.55.33,7.1-2.35.91-2.11,16.54-2.76,5.65-2.69-2.69-2.68Z" fill="#edb055"/><path d="M629.08,574.62c1.54-.33,2.81-1.76,2.92-3.33.99,1.55,2.01,3.07,3.05,4.58.81,0,1.63,0,2.44,0-.04-.06-.09-.12-.13-.17.35.06.71.11,1.06.17,1.82,0,3.63.02,5.45.03-1.11-.5-2.18-1.31-3.5-1-1.39-.1-2.48-1.75-3.9-1.47.25-1.41-.89-2.2-1.89-2.91-.42-.15-.94.17-1.31-.08-.52-.71-.5-1.9-1.51-2.25,6.7-3.04,12.73-8.16,16.43-14.56-.31.25-.49.28-.88.38,4.74-5,8.31-17.61,6.03-24.11.14.1.37.07.51.18-.14-1.5-.86-2.87-1.52-4.22-.05-.49-.11-.98-.18-1.47,0-.05-.01-.1-.02-.15-.58-3.97-1.85-6.54-1.11-9.13.63-2.22,2.74-4.45,8.03-7.58,0,0-3.93-1.05-8.54-3.8-.45-.27-.91-.55-1.37-.85-.12-.08-.26-.13-.39-.2-.22.19-.43.38-.62.55-1.57-.74-3.26-1.16-4.98-1.29-4.85.73-10.03,4.04-10.72,6.64-1,3.79-2.34,9.12-7.55,13.19-.18.14-.4.36-.64.63-.19.22-.41.49-.63.78-.15.16-.26.29-.25.33-.23.31-.47.66-.73,1.03-.54.64-1.03,1.21-1.35,1.51-3.52,4.36-6.14,9.56-10.52,13.11-2.32,1.93-3.51,4.81-4.7,7.58.22-.42.73-.74,1.17-.93-3.81,5.05-6.16,11-9.36,16.43-.93,2.75-4.2,5.93-3.99,8.59-1.27.76-1,2.39-1.28,3.56,1.18,1.51,4.73-3.98,7.07-8.18-6.07,11.84-11.22,22.27-12.75,25.6,0,0,3.92-7.32,10.73-14.63-1.72,3.12-2.65,6.66-4.69,9.62-2.59,3.18-3.85,7.08-5.99,10.52-1.28,2.54-3.9,5.3-3.38,8.24,1.33,2.39,4.95,2.6,6.76.73,1.68,10.69,6.17-10.49,7.66-12.46,2.4-4.9,4.32-9.79,7.3-14.42,1.77,1.12,4.33-3.67,4.52-5.23,2.88-.4,21.04-1.9,16.48-6.51,3.25,1,5.76,3.94,2.78,6.91Z" fill="#edb055"/><path d="M768.91,269.27h191.45l-.18-.88c-1.18-3.04-2.22-5.64-3.26-8.09-14.97-35.4-36.41-67.19-63.71-94.49-27.3-27.3-59.09-48.74-94.49-63.71-36.65-15.5-75.59-23.36-115.72-23.36s-79.06,7.86-115.72,23.36c-35.4,14.97-67.19,36.41-94.49,63.71-17.45,17.45-32.65,36.95-45.2,58h7.77c25.56-41.43,61.37-76.1,103.58-100.29,43.7-25.03,93.52-38.27,144.06-38.27,59.32,0,116.42,17.83,165.13,51.56,45.99,31.85,81.52,75.62,103.05,126.85h-182.27v5.6Z" fill="#edb055"/><path d="M946.82,498.2c-23.01,49.49-59.38,91.47-105.21,121.42-47.23,30.86-102.07,47.17-158.6,47.17-40.65,0-80.01-8.27-116.97-24.58-33.61-14.83-63.72-35.61-89.61-61.79h177.46v-5.6h-191.95l2.2,2.38h.01c2.9,3.16,5.79,6.19,8.65,9.04,27.3,27.3,59.09,48.74,94.49,63.71,36.65,15.5,75.58,23.36,115.72,23.36s79.07-7.86,115.72-23.36c35.4-14.97,67.19-36.41,94.49-63.71,25.59-25.59,46.07-55.21,60.87-88.04h-7.26Z" fill="#edb055"/></svg>